<svg width="238" height="12" viewBox="0 0 238 12" fill="none" xmlns="http://www.w3.org/2000/svg">
<path d="M0.990234 9V0.46875H3.39844C4.14062 0.46875 4.79688 0.632812 5.36719 0.960938C5.9375 1.28906 6.37695 1.75586 6.68555 2.36133C6.99805 2.9668 7.15625 3.66211 7.16016 4.44727V4.99219C7.16016 5.79688 7.00391 6.50195 6.69141 7.10742C6.38281 7.71289 5.93945 8.17773 5.36133 8.50195C4.78711 8.82617 4.11719 8.99219 3.35156 9H0.990234ZM2.11523 1.39453V8.08008H3.29883C4.16602 8.08008 4.83984 7.81055 5.32031 7.27148C5.80469 6.73242 6.04688 5.96484 6.04688 4.96875V4.4707C6.04688 3.50195 5.81836 2.75 5.36133 2.21484C4.9082 1.67578 4.26367 1.40234 3.42773 1.39453H2.11523ZM13.0094 9C12.9469 8.875 12.8961 8.65234 12.857 8.33203C12.3531 8.85547 11.7516 9.11719 11.0523 9.11719C10.4273 9.11719 9.91367 8.94141 9.51133 8.58984C9.11289 8.23438 8.91367 7.78516 8.91367 7.24219C8.91367 6.58203 9.16367 6.07031 9.66367 5.70703C10.1676 5.33984 10.8746 5.15625 11.7848 5.15625H12.8395V4.6582C12.8395 4.2793 12.7262 3.97852 12.4996 3.75586C12.273 3.5293 11.9391 3.41602 11.4977 3.41602C11.1109 3.41602 10.7867 3.51367 10.525 3.70898C10.2633 3.9043 10.1324 4.14062 10.1324 4.41797H9.04258C9.04258 4.10156 9.15391 3.79688 9.37656 3.50391C9.60312 3.20703 9.90781 2.97266 10.2906 2.80078C10.6773 2.62891 11.1012 2.54297 11.5621 2.54297C12.2926 2.54297 12.8648 2.72656 13.2789 3.09375C13.693 3.45703 13.9078 3.95898 13.9234 4.59961V7.51758C13.9234 8.09961 13.9977 8.5625 14.1461 8.90625V9H13.0094ZM11.2105 8.17383C11.5504 8.17383 11.8727 8.08594 12.1773 7.91016C12.482 7.73438 12.7027 7.50586 12.8395 7.22461V5.92383H11.9898C10.6617 5.92383 9.99766 6.3125 9.99766 7.08984C9.99766 7.42969 10.1109 7.69531 10.3375 7.88672C10.5641 8.07812 10.8551 8.17383 11.2105 8.17383ZM17.4934 1.125V2.66016H18.677V3.49805H17.4934V7.42969C17.4934 7.68359 17.5461 7.875 17.6516 8.00391C17.757 8.12891 17.9367 8.19141 18.1906 8.19141C18.3156 8.19141 18.4875 8.16797 18.7063 8.12109V9C18.4211 9.07812 18.1438 9.11719 17.8742 9.11719C17.3898 9.11719 17.0246 8.9707 16.7785 8.67773C16.5324 8.38477 16.4094 7.96875 16.4094 7.42969V3.49805H15.2551V2.66016H16.4094V1.125H17.4934ZM24.2625 9C24.2 8.875 24.1492 8.65234 24.1102 8.33203C23.6063 8.85547 23.0047 9.11719 22.3055 9.11719C21.6805 9.11719 21.1668 8.94141 20.7645 8.58984C20.366 8.23438 20.1668 7.78516 20.1668 7.24219C20.1668 6.58203 20.4168 6.07031 20.9168 5.70703C21.4207 5.33984 22.1277 5.15625 23.0379 5.15625H24.0926V4.6582C24.0926 4.2793 23.9793 3.97852 23.7527 3.75586C23.5262 3.5293 23.1922 3.41602 22.7508 3.41602C22.3641 3.41602 22.0398 3.51367 21.7781 3.70898C21.5164 3.9043 21.3855 4.14062 21.3855 4.41797H20.2957C20.2957 4.10156 20.407 3.79688 20.6297 3.50391C20.8563 3.20703 21.1609 2.97266 21.5438 2.80078C21.9305 2.62891 22.3543 2.54297 22.8152 2.54297C23.5457 2.54297 24.118 2.72656 24.532 3.09375C24.9461 3.45703 25.1609 3.95898 25.1766 4.59961V7.51758C25.1766 8.09961 25.2508 8.5625 25.3992 8.90625V9H24.2625ZM22.4637 8.17383C22.8035 8.17383 23.1258 8.08594 23.4305 7.91016C23.7352 7.73438 23.9559 7.50586 24.0926 7.22461V5.92383H23.243C21.9148 5.92383 21.2508 6.3125 21.2508 7.08984C21.2508 7.42969 21.3641 7.69531 21.5906 7.88672C21.8172 8.07812 22.1082 8.17383 22.4637 8.17383ZM36.0078 5.90039C36.0078 6.86523 35.7871 7.64258 35.3457 8.23242C34.9043 8.82227 34.3066 9.11719 33.5527 9.11719C32.7832 9.11719 32.1777 8.87305 31.7363 8.38477V11.4375H30.6523V2.66016H31.6426L31.6953 3.36328C32.1367 2.81641 32.75 2.54297 33.5352 2.54297C34.2969 2.54297 34.8984 2.83008 35.3398 3.4043C35.7852 3.97852 36.0078 4.77734 36.0078 5.80078V5.90039ZM34.9238 5.77734C34.9238 5.0625 34.7715 4.49805 34.4668 4.08398C34.1621 3.66992 33.7441 3.46289 33.2129 3.46289C32.5566 3.46289 32.0645 3.75391 31.7363 4.33594V7.36523C32.0605 7.94336 32.5566 8.23242 33.2246 8.23242C33.7441 8.23242 34.1562 8.02734 34.4609 7.61719C34.7695 7.20312 34.9238 6.58984 34.9238 5.77734ZM40.8551 3.63281C40.691 3.60547 40.5133 3.5918 40.3219 3.5918C39.6109 3.5918 39.1285 3.89453 38.8746 4.5V9H37.7906V2.66016H38.8453L38.8629 3.39258C39.2184 2.82617 39.7223 2.54297 40.3746 2.54297C40.5855 2.54297 40.7457 2.57031 40.8551 2.625V3.63281ZM41.8527 5.77148C41.8527 5.15039 41.9738 4.5918 42.216 4.0957C42.4621 3.59961 42.802 3.2168 43.2355 2.94727C43.673 2.67773 44.1711 2.54297 44.7297 2.54297C45.593 2.54297 46.2902 2.8418 46.8215 3.43945C47.3566 4.03711 47.6242 4.83203 47.6242 5.82422V5.90039C47.6242 6.51758 47.5051 7.07227 47.2668 7.56445C47.0324 8.05273 46.6945 8.43359 46.2531 8.70703C45.8156 8.98047 45.3117 9.11719 44.7414 9.11719C43.882 9.11719 43.1848 8.81836 42.6496 8.2207C42.1184 7.62305 41.8527 6.83203 41.8527 5.84766V5.77148ZM42.9426 5.90039C42.9426 6.60352 43.1047 7.16797 43.4289 7.59375C43.757 8.01953 44.1945 8.23242 44.7414 8.23242C45.2922 8.23242 45.7297 8.01758 46.0539 7.58789C46.3781 7.1543 46.5402 6.54883 46.5402 5.77148C46.5402 5.07617 46.3742 4.51367 46.0422 4.08398C45.7141 3.65039 45.2766 3.43359 44.7297 3.43359C44.1945 3.43359 43.7629 3.64648 43.4348 4.07227C43.1066 4.49805 42.9426 5.10742 42.9426 5.90039ZM51.3816 7.5293L52.952 2.66016H54.0594L51.7859 9H50.9598L48.6629 2.66016H49.7703L51.3816 7.5293ZM56.6801 9H55.5961V2.66016H56.6801V9ZM55.5082 0.978516C55.5082 0.802734 55.5609 0.654297 55.6664 0.533203C55.7758 0.412109 55.9359 0.351562 56.1469 0.351562C56.3578 0.351562 56.518 0.412109 56.6273 0.533203C56.7367 0.654297 56.7914 0.802734 56.7914 0.978516C56.7914 1.1543 56.7367 1.30078 56.6273 1.41797C56.518 1.53516 56.3578 1.59375 56.1469 1.59375C55.9359 1.59375 55.7758 1.53516 55.6664 1.41797C55.5609 1.30078 55.5082 1.1543 55.5082 0.978516ZM58.5566 5.77734C58.5566 4.80469 58.7871 4.02344 59.248 3.43359C59.709 2.83984 60.3125 2.54297 61.0586 2.54297C61.8008 2.54297 62.3887 2.79688 62.8223 3.30469V0H63.9062V9H62.9102L62.8574 8.32031C62.4238 8.85156 61.8203 9.11719 61.0469 9.11719C60.3125 9.11719 59.7129 8.81641 59.248 8.21484C58.7871 7.61328 58.5566 6.82812 58.5566 5.85938V5.77734ZM59.6406 5.90039C59.6406 6.61914 59.7891 7.18164 60.0859 7.58789C60.3828 7.99414 60.793 8.19727 61.3164 8.19727C62.0039 8.19727 62.5059 7.88867 62.8223 7.27148V4.35938C62.498 3.76172 62 3.46289 61.3281 3.46289C60.7969 3.46289 60.3828 3.66797 60.0859 4.07812C59.7891 4.48828 59.6406 5.0957 59.6406 5.90039ZM68.6246 9.11719C67.7652 9.11719 67.066 8.83594 66.527 8.27344C65.9879 7.70703 65.7184 6.95117 65.7184 6.00586V5.80664C65.7184 5.17773 65.8375 4.61719 66.0758 4.125C66.318 3.62891 66.6539 3.24219 67.0836 2.96484C67.5172 2.68359 67.9859 2.54297 68.4898 2.54297C69.3141 2.54297 69.9547 2.81445 70.4117 3.35742C70.8688 3.90039 71.0973 4.67773 71.0973 5.68945V6.14062H66.8023C66.818 6.76562 66.9996 7.27148 67.3473 7.6582C67.6988 8.04102 68.1441 8.23242 68.6832 8.23242C69.066 8.23242 69.3902 8.1543 69.6559 7.99805C69.9215 7.8418 70.1539 7.63477 70.3531 7.37695L71.0152 7.89258C70.484 8.70898 69.6871 9.11719 68.6246 9.11719ZM68.4898 3.43359C68.0523 3.43359 67.6852 3.59375 67.3883 3.91406C67.0914 4.23047 66.9078 4.67578 66.8375 5.25H70.0133V5.16797C69.982 4.61719 69.8336 4.19141 69.568 3.89062C69.3023 3.58594 68.943 3.43359 68.4898 3.43359ZM72.4934 5.77734C72.4934 4.80469 72.7238 4.02344 73.1848 3.43359C73.6457 2.83984 74.2492 2.54297 74.9953 2.54297C75.7375 2.54297 76.3254 2.79688 76.759 3.30469V0H77.843V9H76.8469L76.7941 8.32031C76.3605 8.85156 75.757 9.11719 74.9836 9.11719C74.2492 9.11719 73.6496 8.81641 73.1848 8.21484C72.7238 7.61328 72.4934 6.82812 72.4934 5.85938V5.77734ZM73.5773 5.90039C73.5773 6.61914 73.7258 7.18164 74.0227 7.58789C74.3195 7.99414 74.7297 8.19727 75.2531 8.19727C75.9406 8.19727 76.4426 7.88867 76.759 7.27148V4.35938C76.4348 3.76172 75.9367 3.46289 75.2648 3.46289C74.7336 3.46289 74.3195 3.66797 74.0227 4.07812C73.7258 4.48828 73.5773 5.0957 73.5773 5.90039ZM88.6742 5.90039C88.6742 6.86914 88.4516 7.64844 88.0062 8.23828C87.5609 8.82422 86.9633 9.11719 86.2133 9.11719C85.4125 9.11719 84.7934 8.83398 84.3559 8.26758L84.3031 9H83.307V0H84.391V3.35742C84.8285 2.81445 85.432 2.54297 86.2016 2.54297C86.9711 2.54297 87.5746 2.83398 88.0121 3.41602C88.4535 3.99805 88.6742 4.79492 88.6742 5.80664V5.90039ZM87.5902 5.77734C87.5902 5.03906 87.4477 4.46875 87.1625 4.06641C86.8773 3.66406 86.4672 3.46289 85.932 3.46289C85.2172 3.46289 84.7035 3.79492 84.391 4.45898V7.20117C84.723 7.86523 85.2406 8.19727 85.9437 8.19727C86.4633 8.19727 86.8676 7.99609 87.1566 7.59375C87.4457 7.19141 87.5902 6.58594 87.5902 5.77734ZM92.4492 7.41211L93.9258 2.66016H95.0859L92.5371 9.97852C92.1426 11.0332 91.5156 11.5605 90.6562 11.5605L90.4512 11.543L90.0469 11.4668V10.5879L90.3398 10.6113C90.707 10.6113 90.9922 10.5371 91.1953 10.3887C91.4023 10.2402 91.5723 9.96875 91.7051 9.57422L91.9453 8.92969L89.6836 2.66016H90.8672L92.4492 7.41211ZM101.458 0.46875L104.247 7.42969L107.036 0.46875H108.495V9H107.37V5.67773L107.476 2.0918L104.675 9H103.814L101.019 2.10938L101.13 5.67773V9H100.005V0.46875H101.458ZM114.626 9C114.563 8.875 114.512 8.65234 114.473 8.33203C113.97 8.85547 113.368 9.11719 112.669 9.11719C112.044 9.11719 111.53 8.94141 111.128 8.58984C110.729 8.23438 110.53 7.78516 110.53 7.24219C110.53 6.58203 110.78 6.07031 111.28 5.70703C111.784 5.33984 112.491 5.15625 113.401 5.15625H114.456V4.6582C114.456 4.2793 114.343 3.97852 114.116 3.75586C113.889 3.5293 113.555 3.41602 113.114 3.41602C112.727 3.41602 112.403 3.51367 112.141 3.70898C111.88 3.9043 111.749 4.14062 111.749 4.41797H110.659C110.659 4.10156 110.77 3.79688 110.993 3.50391C111.22 3.20703 111.524 2.97266 111.907 2.80078C112.294 2.62891 112.718 2.54297 113.179 2.54297C113.909 2.54297 114.481 2.72656 114.895 3.09375C115.309 3.45703 115.524 3.95898 115.54 4.59961V7.51758C115.54 8.09961 115.614 8.5625 115.762 8.90625V9H114.626ZM112.827 8.17383C113.167 8.17383 113.489 8.08594 113.794 7.91016C114.098 7.73438 114.319 7.50586 114.456 7.22461V5.92383H113.606C112.278 5.92383 111.614 6.3125 111.614 7.08984C111.614 7.42969 111.727 7.69531 111.954 7.88672C112.18 8.07812 112.471 8.17383 112.827 8.17383ZM120.704 3.63281C120.539 3.60547 120.362 3.5918 120.17 3.5918C119.459 3.5918 118.977 3.89453 118.723 4.5V9H117.639V2.66016H118.694L118.711 3.39258C119.067 2.82617 119.571 2.54297 120.223 2.54297C120.434 2.54297 120.594 2.57031 120.704 2.625V3.63281ZM124.303 7.5293L125.873 2.66016H126.98L124.707 9H123.881L121.584 2.66016H122.691L124.303 7.5293ZM130.972 9.11719C130.113 9.11719 129.414 8.83594 128.875 8.27344C128.336 7.70703 128.066 6.95117 128.066 6.00586V5.80664C128.066 5.17773 128.185 4.61719 128.423 4.125C128.666 3.62891 129.002 3.24219 129.431 2.96484C129.865 2.68359 130.334 2.54297 130.838 2.54297C131.662 2.54297 132.302 2.81445 132.759 3.35742C133.216 3.90039 133.445 4.67773 133.445 5.68945V6.14062H129.15C129.166 6.76562 129.347 7.27148 129.695 7.6582C130.046 8.04102 130.492 8.23242 131.031 8.23242C131.414 8.23242 131.738 8.1543 132.004 7.99805C132.269 7.8418 132.502 7.63477 132.701 7.37695L133.363 7.89258C132.832 8.70898 132.035 9.11719 130.972 9.11719ZM130.838 3.43359C130.4 3.43359 130.033 3.59375 129.736 3.91406C129.439 4.23047 129.255 4.67578 129.185 5.25H132.361V5.16797C132.33 4.61719 132.181 4.19141 131.916 3.89062C131.65 3.58594 131.291 3.43359 130.838 3.43359ZM136.282 9H135.198V0H136.282V9ZM138.446 8.43164C138.446 8.24414 138.501 8.08789 138.61 7.96289C138.723 7.83789 138.891 7.77539 139.114 7.77539C139.337 7.77539 139.505 7.83789 139.618 7.96289C139.735 8.08789 139.794 8.24414 139.794 8.43164C139.794 8.61133 139.735 8.76172 139.618 8.88281C139.505 9.00391 139.337 9.06445 139.114 9.06445C138.891 9.06445 138.723 9.00391 138.61 8.88281C138.501 8.76172 138.446 8.61133 138.446 8.43164ZM151.1 5.50195C151.1 6.09961 150.93 6.55664 150.59 6.87305C150.254 7.18555 149.777 7.3418 149.16 7.3418C148.547 7.3418 148.055 7.13672 147.684 6.72656C147.316 6.3125 147.133 5.75 147.133 5.03906V4.39453C147.133 3.70703 147.318 3.1582 147.689 2.74805C148.064 2.33398 148.555 2.12695 149.16 2.12695C149.785 2.12695 150.266 2.28711 150.602 2.60742C150.938 2.92773 151.105 3.37891 151.105 3.96094H150.25C150.25 3.57422 150.156 3.29883 149.969 3.13477C149.785 2.9668 149.516 2.88281 149.16 2.88281C148.793 2.88281 148.504 3.01758 148.293 3.28711C148.082 3.55664 147.977 3.93164 147.977 4.41211V5.07422C147.977 5.54297 148.082 5.91211 148.293 6.18164C148.504 6.45117 148.793 6.58594 149.16 6.58594C149.52 6.58594 149.789 6.50391 149.969 6.33984C150.152 6.17578 150.244 5.89648 150.244 5.50195H151.1ZM145.75 4.72852C145.75 5.40039 145.906 6.02344 146.219 6.59766C146.531 7.16797 146.955 7.61523 147.49 7.93945C148.029 8.26367 148.611 8.42578 149.236 8.42578C149.861 8.42578 150.441 8.26367 150.977 7.93945C151.512 7.61523 151.936 7.16797 152.248 6.59766C152.561 6.02344 152.717 5.40039 152.717 4.72852C152.717 4.06445 152.562 3.44922 152.254 2.88281C151.945 2.31641 151.521 1.87109 150.982 1.54688C150.447 1.21875 149.865 1.05469 149.236 1.05469C148.611 1.05469 148.029 1.2168 147.49 1.54102C146.951 1.86133 146.525 2.30664 146.213 2.87695C145.904 3.44727 145.75 4.06445 145.75 4.72852ZM145.076 4.72852C145.076 3.93945 145.258 3.20703 145.621 2.53125C145.988 1.85547 146.494 1.32422 147.139 0.9375C147.787 0.546875 148.486 0.351562 149.236 0.351562C149.986 0.351562 150.684 0.546875 151.328 0.9375C151.973 1.32422 152.477 1.85547 152.84 2.53125C153.207 3.20703 153.391 3.93945 153.391 4.72852C153.391 5.49805 153.215 6.21875 152.863 6.89062C152.512 7.5625 152.012 8.10352 151.363 8.51367C150.719 8.91992 150.01 9.12305 149.236 9.12305C148.467 9.12305 147.758 8.92188 147.109 8.51953C146.465 8.11328 145.965 7.57422 145.609 6.90234C145.254 6.23047 145.076 5.50586 145.076 4.72852ZM164.052 9H158.462V8.2207L161.415 4.93945C161.853 4.44336 162.154 4.04102 162.318 3.73242C162.486 3.41992 162.57 3.09766 162.57 2.76562C162.57 2.32031 162.435 1.95508 162.165 1.66992C161.896 1.38477 161.536 1.24219 161.087 1.24219C160.548 1.24219 160.128 1.39648 159.827 1.70508C159.53 2.00977 159.382 2.43555 159.382 2.98242H158.298C158.298 2.19727 158.55 1.5625 159.054 1.07812C159.562 0.59375 160.239 0.351562 161.087 0.351562C161.88 0.351562 162.507 0.560547 162.968 0.978516C163.429 1.39258 163.659 1.94531 163.659 2.63672C163.659 3.47656 163.124 4.47656 162.054 5.63672L159.769 8.11523H164.052V9ZM170.95 5.36133C170.95 6.63086 170.733 7.57422 170.3 8.19141C169.866 8.80859 169.188 9.11719 168.266 9.11719C167.356 9.11719 166.682 8.81641 166.245 8.21484C165.807 7.60938 165.581 6.70703 165.565 5.50781V4.06055C165.565 2.80664 165.782 1.875 166.216 1.26562C166.649 0.65625 167.329 0.351562 168.255 0.351562C169.173 0.351562 169.848 0.646484 170.282 1.23633C170.716 1.82227 170.938 2.72852 170.95 3.95508V5.36133ZM169.866 3.87891C169.866 2.96094 169.737 2.29297 169.479 1.875C169.221 1.45312 168.813 1.24219 168.255 1.24219C167.7 1.24219 167.296 1.45117 167.042 1.86914C166.788 2.28711 166.657 2.92969 166.649 3.79688V5.53125C166.649 6.45312 166.782 7.13477 167.048 7.57617C167.317 8.01367 167.723 8.23242 168.266 8.23242C168.802 8.23242 169.198 8.02539 169.456 7.61133C169.718 7.19727 169.854 6.54492 169.866 5.6543V3.87891ZM178.329 9H172.739V8.2207L175.692 4.93945C176.129 4.44336 176.43 4.04102 176.594 3.73242C176.762 3.41992 176.846 3.09766 176.846 2.76562C176.846 2.32031 176.711 1.95508 176.442 1.66992C176.172 1.38477 175.813 1.24219 175.364 1.24219C174.825 1.24219 174.405 1.39648 174.104 1.70508C173.807 2.00977 173.659 2.43555 173.659 2.98242H172.575C172.575 2.19727 172.827 1.5625 173.33 1.07812C173.838 0.59375 174.516 0.351562 175.364 0.351562C176.157 0.351562 176.784 0.560547 177.245 0.978516C177.705 1.39258 177.936 1.94531 177.936 2.63672C177.936 3.47656 177.401 4.47656 176.33 5.63672L174.045 8.11523H178.329V9ZM185.227 5.36133C185.227 6.63086 185.01 7.57422 184.576 8.19141C184.143 8.80859 183.465 9.11719 182.543 9.11719C181.633 9.11719 180.959 8.81641 180.521 8.21484C180.084 7.60938 179.857 6.70703 179.842 5.50781V4.06055C179.842 2.80664 180.059 1.875 180.492 1.26562C180.926 0.65625 181.605 0.351562 182.531 0.351562C183.449 0.351562 184.125 0.646484 184.559 1.23633C184.992 1.82227 185.215 2.72852 185.227 3.95508V5.36133ZM184.143 3.87891C184.143 2.96094 184.014 2.29297 183.756 1.875C183.498 1.45312 183.09 1.24219 182.531 1.24219C181.977 1.24219 181.572 1.45117 181.318 1.86914C181.064 2.28711 180.934 2.92969 180.926 3.79688V5.53125C180.926 6.45312 181.059 7.13477 181.324 7.57617C181.594 8.01367 182 8.23242 182.543 8.23242C183.078 8.23242 183.475 8.02539 183.732 7.61133C183.994 7.19727 184.131 6.54492 184.143 5.6543V3.87891ZM192.126 0.46875L194.915 7.42969L197.704 0.46875H199.163V9H198.038V5.67773L198.144 2.0918L195.343 9H194.482L191.687 2.10938L191.798 5.67773V9H190.673V0.46875H192.126ZM206.366 6.77344H202.792L201.989 9H200.829L204.087 0.46875H205.071L208.335 9H207.18L206.366 6.77344ZM203.132 5.84766H206.032L204.579 1.85742L203.132 5.84766ZM213.012 5.54883H211.008V9H209.877V0.46875H212.702C213.663 0.46875 214.401 0.6875 214.916 1.125C215.436 1.5625 215.696 2.19922 215.696 3.03516C215.696 3.56641 215.551 4.0293 215.262 4.42383C214.977 4.81836 214.579 5.11328 214.067 5.30859L216.071 8.92969V9H214.864L213.012 5.54883ZM211.008 4.62891H212.737C213.295 4.62891 213.739 4.48438 214.067 4.19531C214.399 3.90625 214.565 3.51953 214.565 3.03516C214.565 2.50781 214.407 2.10352 214.09 1.82227C213.778 1.54102 213.325 1.39844 212.731 1.39453H211.008V4.62891ZM220.385 7.50586L222.822 0.46875H224.053L220.889 9H219.893L216.734 0.46875H217.959L220.385 7.50586ZM230.423 5.05664H226.726V8.08008H231.021V9H225.601V0.46875H230.962V1.39453H226.726V4.13672H230.423V5.05664ZM233.952 8.08008H237.995V9H232.821V0.46875H233.952V8.08008Z" fill="white" fill-opacity="0.87"/>
</svg>
