<svg width="266" height="26" viewBox="0 0 266 26" fill="none" xmlns="http://www.w3.org/2000/svg">
<path d="M6.636 25H1.57C1.13933 25 0.822 24.9093 0.618 24.728C0.436667 24.524 0.346 24.2067 0.346 23.776V1.744C0.346 1.31333 0.436667 1.00733 0.618 0.825999C0.822 0.621999 1.13933 0.519999 1.57 0.519999H7.044C7.40667 0.519999 7.70133 0.599332 7.928 0.757998C8.17733 0.916665 8.404 1.17733 8.608 1.54L11.668 7.082C11.7813 7.286 11.872 7.43333 11.94 7.524C12.0307 7.61467 12.144 7.66 12.28 7.66H12.586C12.722 7.66 12.824 7.61467 12.892 7.524C12.9827 7.43333 13.0847 7.286 13.198 7.082L16.224 1.54C16.428 1.17733 16.6433 0.916665 16.87 0.757998C17.1193 0.599332 17.4253 0.519999 17.788 0.519999H23.296C23.7267 0.519999 24.0327 0.621999 24.214 0.825999C24.418 1.00733 24.52 1.31333 24.52 1.744V23.776C24.52 24.2067 24.418 24.524 24.214 24.728C24.0327 24.9093 23.7267 25 23.296 25H18.06C17.6293 25 17.312 24.9093 17.108 24.728C16.9267 24.524 16.836 24.2067 16.836 23.776V11.808L14.83 15.514C14.626 15.8993 14.3767 16.1827 14.082 16.364C13.81 16.5227 13.4587 16.602 13.028 16.602H11.668C11.2373 16.602 10.8747 16.5227 10.58 16.364C10.308 16.1827 10.07 15.8993 9.866 15.514L7.86 11.808V23.776C7.86 24.2067 7.758 24.524 7.554 24.728C7.37267 24.9093 7.06667 25 6.636 25ZM41.6095 25H36.1015C35.6708 25 35.3535 24.9093 35.1495 24.728C34.9682 24.524 34.8775 24.2067 34.8775 23.776V19.424L29.6755 12.454C29.1542 11.7513 28.8028 11.1393 28.6215 10.618C28.4628 10.0967 28.3835 9.31467 28.3835 8.272V1.744C28.3835 1.31333 28.4742 1.00733 28.6555 0.825999C28.8595 0.621999 29.1768 0.519999 29.6075 0.519999H34.8435C35.2742 0.519999 35.5802 0.621999 35.7615 0.825999C35.9655 1.00733 36.0675 1.31333 36.0675 1.744V7.32C36.0675 7.54667 36.0788 7.78467 36.1015 8.034C36.1242 8.28333 36.2148 8.52133 36.3735 8.748L37.9375 11.196C38.0508 11.4 38.1642 11.5473 38.2775 11.638C38.4135 11.7287 38.5722 11.774 38.7535 11.774H39.0935C39.2748 11.774 39.4222 11.7287 39.5355 11.638C39.6715 11.5473 39.7962 11.4 39.9095 11.196L41.4735 8.748C41.6322 8.52133 41.7228 8.28333 41.7455 8.034C41.7682 7.78467 41.7795 7.54667 41.7795 7.32V1.744C41.7795 1.31333 41.8702 1.00733 42.0515 0.825999C42.2555 0.621999 42.5728 0.519999 43.0035 0.519999H48.0695C48.5002 0.519999 48.8062 0.621999 48.9875 0.825999C49.1915 1.00733 49.2935 1.31333 49.2935 1.744V8.272C49.2935 9.31467 49.2028 10.0967 49.0215 10.618C48.8402 11.1393 48.5002 11.7513 48.0015 12.454L42.8335 19.458V23.776C42.8335 24.2067 42.7315 24.524 42.5275 24.728C42.3462 24.9093 42.0402 25 41.6095 25ZM64.5282 25H53.7842C53.3535 25 53.0362 24.9093 52.8322 24.728C52.6508 24.524 52.5602 24.2067 52.5602 23.776V19.798C52.5602 19.3673 52.6508 19.0613 52.8322 18.88C53.0362 18.676 53.3535 18.574 53.7842 18.574H62.9302C63.2248 18.574 63.4402 18.4833 63.5762 18.302C63.7348 18.098 63.8142 17.86 63.8142 17.588C63.8142 17.2027 63.7348 16.9193 63.5762 16.738C63.4402 16.5567 63.2248 16.4547 62.9302 16.432L57.8302 15.718C56.2435 15.4913 54.9628 14.97 53.9882 14.154C53.0362 13.338 52.5602 11.978 52.5602 10.074V6.504C52.5602 4.57733 53.1835 3.104 54.4302 2.084C55.6768 1.04133 57.3995 0.519999 59.5982 0.519999H69.1182C69.5488 0.519999 69.8548 0.621999 70.0362 0.825999C70.2402 1.00733 70.3422 1.31333 70.3422 1.744V5.79C70.3422 6.22067 70.2402 6.538 70.0362 6.742C69.8548 6.92333 69.5488 7.014 69.1182 7.014H61.1962C60.9015 7.014 60.6748 7.116 60.5162 7.32C60.3575 7.50133 60.2782 7.73933 60.2782 8.034C60.2782 8.32867 60.3575 8.578 60.5162 8.782C60.6748 8.986 60.9015 9.09933 61.1962 9.122L66.2622 9.802C67.8488 10.0287 69.1295 10.55 70.1042 11.366C71.0788 12.182 71.5662 13.542 71.5662 15.446V19.016C71.5662 20.9427 70.9315 22.4273 69.6622 23.47C68.4155 24.49 66.7042 25 64.5282 25ZM96.1275 18.574C96.1275 19.6167 95.9688 20.5687 95.6515 21.43C95.3568 22.2687 94.8128 22.994 94.0195 23.606C93.2488 24.1953 92.1835 24.66 90.8235 25C89.4635 25.34 87.7295 25.51 85.6215 25.51C83.5135 25.51 81.7795 25.34 80.4195 25C79.0595 24.66 77.9828 24.1953 77.1895 23.606C76.4188 22.994 75.8748 22.2687 75.5575 21.43C75.2628 20.5687 75.1155 19.6167 75.1155 18.574V1.744C75.1155 1.31333 75.2061 1.00733 75.3875 0.825999C75.5915 0.621999 75.9088 0.519999 76.3395 0.519999H81.6775C82.1081 0.519999 82.4141 0.621999 82.5955 0.825999C82.7995 1.00733 82.9015 1.31333 82.9015 1.744V17.248C82.9015 17.7013 83.0715 18.0867 83.4115 18.404C83.7515 18.6987 84.5108 18.846 85.6895 18.846C86.8908 18.846 87.6615 18.6987 88.0015 18.404C88.3415 18.0867 88.5115 17.7013 88.5115 17.248V1.744C88.5115 1.31333 88.6021 1.00733 88.7835 0.825999C88.9875 0.621999 89.3048 0.519999 89.7355 0.519999H94.9035C95.3341 0.519999 95.6401 0.621999 95.8215 0.825999C96.0255 1.00733 96.1275 1.31333 96.1275 1.744V18.574ZM107.147 25H101.877C101.446 25 101.129 24.9093 100.925 24.728C100.743 24.524 100.653 24.2067 100.653 23.776V1.744C100.653 1.31333 100.743 1.00733 100.925 0.825999C101.129 0.621999 101.446 0.519999 101.877 0.519999H112.281C115.363 0.519999 117.471 1.132 118.605 2.356C119.738 3.58 120.305 5.178 120.305 7.15V11.502C120.305 13.474 119.738 15.072 118.605 16.296C117.471 17.52 115.363 18.132 112.281 18.132H108.371V23.776C108.371 24.2067 108.269 24.524 108.065 24.728C107.883 24.9093 107.577 25 107.147 25ZM108.303 6.878V12.012H111.363C112.02 12.012 112.451 11.842 112.655 11.502C112.859 11.162 112.961 10.7767 112.961 10.346V8.544C112.961 8.11333 112.859 7.728 112.655 7.388C112.451 7.048 112.02 6.878 111.363 6.878H108.303ZM140.828 25H125.052C124.622 25 124.304 24.9093 124.1 24.728C123.919 24.524 123.828 24.2067 123.828 23.776V1.744C123.828 1.31333 123.919 1.00733 124.1 0.825999C124.304 0.621999 124.622 0.519999 125.052 0.519999H140.828C141.259 0.519999 141.565 0.621999 141.746 0.825999C141.95 1.00733 142.052 1.31333 142.052 1.744V5.722C142.052 6.15267 141.95 6.47 141.746 6.674C141.565 6.85533 141.259 6.946 140.828 6.946H131.444V9.564H138.074C138.505 9.564 138.811 9.666 138.992 9.87C139.196 10.0513 139.298 10.3573 139.298 10.788V14.426C139.298 14.8567 139.196 15.174 138.992 15.378C138.811 15.5593 138.505 15.65 138.074 15.65H131.444V18.574H140.828C141.259 18.574 141.565 18.676 141.746 18.88C141.95 19.0613 142.052 19.3673 142.052 19.798V23.776C142.052 24.2067 141.95 24.524 141.746 24.728C141.565 24.9093 141.259 25 140.828 25ZM153.759 6.64V10.992H156.309C156.898 10.992 157.295 10.8447 157.499 10.55C157.703 10.2327 157.805 9.84733 157.805 9.394V8.238C157.805 7.78467 157.703 7.41067 157.499 7.116C157.295 6.79867 156.898 6.64 156.309 6.64H153.759ZM152.535 25H147.299C146.868 25 146.551 24.9093 146.347 24.728C146.165 24.524 146.075 24.2067 146.075 23.776V1.744C146.075 1.31333 146.165 1.00733 146.347 0.825999C146.551 0.621999 146.868 0.519999 147.299 0.519999H158.621C161.159 0.519999 162.905 1.05267 163.857 2.118C164.831 3.16067 165.319 4.52067 165.319 6.198V7.762C165.319 8.714 165.171 9.53 164.877 10.21C164.605 10.8673 164.117 11.3433 163.415 11.638C164.639 11.774 165.625 12.2727 166.373 13.134C167.143 13.9953 167.529 15.14 167.529 16.568V23.776C167.529 24.2067 167.427 24.524 167.223 24.728C167.041 24.9093 166.735 25 166.305 25H161.035C160.604 25 160.287 24.9093 160.083 24.728C159.901 24.524 159.811 24.2067 159.811 23.776V18.574C159.811 18.0753 159.709 17.7127 159.505 17.486C159.323 17.2367 158.995 17.112 158.519 17.112H153.759V23.776C153.759 24.2067 153.657 24.524 153.453 24.728C153.271 24.9093 152.965 25 152.535 25ZM177.836 25H172.566C172.135 25 171.818 24.9093 171.614 24.728C171.433 24.524 171.342 24.2067 171.342 23.776V1.744C171.342 1.31333 171.433 1.00733 171.614 0.825999C171.818 0.621999 172.135 0.519999 172.566 0.519999H177.836C178.267 0.519999 178.573 0.621999 178.754 0.825999C178.958 1.00733 179.06 1.31333 179.06 1.744V9.122H184.738V1.744C184.738 1.31333 184.829 1.00733 185.01 0.825999C185.214 0.621999 185.531 0.519999 185.962 0.519999H191.232C191.663 0.519999 191.969 0.621999 192.15 0.825999C192.354 1.00733 192.456 1.31333 192.456 1.744V23.776C192.456 24.2067 192.354 24.524 192.15 24.728C191.969 24.9093 191.663 25 191.232 25H185.962C185.531 25 185.214 24.9093 185.01 24.728C184.829 24.524 184.738 24.2067 184.738 23.776V16.228H179.06V23.776C179.06 24.2067 178.958 24.524 178.754 24.728C178.573 24.9093 178.267 25 177.836 25ZM214.141 25H198.365C197.934 25 197.617 24.9093 197.413 24.728C197.232 24.524 197.141 24.2067 197.141 23.776V1.744C197.141 1.31333 197.232 1.00733 197.413 0.825999C197.617 0.621999 197.934 0.519999 198.365 0.519999H214.141C214.572 0.519999 214.878 0.621999 215.059 0.825999C215.263 1.00733 215.365 1.31333 215.365 1.744V5.722C215.365 6.15267 215.263 6.47 215.059 6.674C214.878 6.85533 214.572 6.946 214.141 6.946H204.757V9.564H211.387C211.818 9.564 212.124 9.666 212.305 9.87C212.509 10.0513 212.611 10.3573 212.611 10.788V14.426C212.611 14.8567 212.509 15.174 212.305 15.378C212.124 15.5593 211.818 15.65 211.387 15.65H204.757V18.574H214.141C214.572 18.574 214.878 18.676 215.059 18.88C215.263 19.0613 215.365 19.3673 215.365 19.798V23.776C215.365 24.2067 215.263 24.524 215.059 24.728C214.878 24.9093 214.572 25 214.141 25ZM227.071 6.64V10.992H229.621C230.21 10.992 230.607 10.8447 230.811 10.55C231.015 10.2327 231.117 9.84733 231.117 9.394V8.238C231.117 7.78467 231.015 7.41067 230.811 7.116C230.607 6.79867 230.21 6.64 229.621 6.64H227.071ZM225.847 25H220.611C220.18 25 219.863 24.9093 219.659 24.728C219.478 24.524 219.387 24.2067 219.387 23.776V1.744C219.387 1.31333 219.478 1.00733 219.659 0.825999C219.863 0.621999 220.18 0.519999 220.611 0.519999H231.933C234.472 0.519999 236.217 1.05267 237.169 2.118C238.144 3.16067 238.631 4.52067 238.631 6.198V7.762C238.631 8.714 238.484 9.53 238.189 10.21C237.917 10.8673 237.43 11.3433 236.727 11.638C237.951 11.774 238.937 12.2727 239.685 13.134C240.456 13.9953 240.841 15.14 240.841 16.568V23.776C240.841 24.2067 240.739 24.524 240.535 24.728C240.354 24.9093 240.048 25 239.617 25H234.347C233.916 25 233.599 24.9093 233.395 24.728C233.214 24.524 233.123 24.2067 233.123 23.776V18.574C233.123 18.0753 233.021 17.7127 232.817 17.486C232.636 17.2367 232.307 17.112 231.831 17.112H227.071V23.776C227.071 24.2067 226.969 24.524 226.765 24.728C226.584 24.9093 226.278 25 225.847 25ZM265.229 18.574C265.229 19.6167 265.07 20.5687 264.753 21.43C264.458 22.2687 263.914 22.994 263.121 23.606C262.35 24.1953 261.273 24.66 259.891 25C258.531 25.34 256.797 25.51 254.689 25.51C252.581 25.51 250.835 25.34 249.453 25C248.07 24.66 246.982 24.1953 246.189 23.606C245.418 22.994 244.874 22.2687 244.557 21.43C244.262 20.5687 244.115 19.6167 244.115 18.574V6.98C244.115 5.93733 244.262 4.99667 244.557 4.158C244.874 3.29667 245.418 2.56 246.189 1.948C246.982 1.336 248.07 0.859999 249.453 0.519999C250.835 0.179999 252.581 0.00999951 254.689 0.00999951C256.797 0.00999951 258.531 0.179999 259.891 0.519999C261.273 0.859999 262.35 1.336 263.121 1.948C263.914 2.56 264.458 3.29667 264.753 4.158C265.07 4.99667 265.229 5.93733 265.229 6.98V18.574ZM251.833 17.35C251.833 17.8033 252.003 18.1887 252.343 18.506C252.683 18.8007 253.465 18.948 254.689 18.948C255.913 18.948 256.695 18.8007 257.035 18.506C257.375 18.1887 257.545 17.8033 257.545 17.35V8.204C257.545 7.77333 257.375 7.41067 257.035 7.116C256.695 6.79867 255.913 6.64 254.689 6.64C253.465 6.64 252.683 6.79867 252.343 7.116C252.003 7.41067 251.833 7.77333 251.833 8.204V17.35Z" fill="white" fill-opacity="0.87"/>
</svg>
